<svg id="visual" viewBox="0 0 900 600" width="900" height="600" xmlns="http://www.w3.org/2000/svg" xmlns:xlink="http://www.w3.org/1999/xlink" version="1.1"><rect x="0" y="0" width="900" height="600" fill="#F2F8FF"></rect><defs><linearGradient id="grad1_0" x1="33.3%" y1="0%" x2="100%" y2="100%"><stop offset="20%" stop-color="#dbf6ff" stop-opacity="1"></stop><stop offset="80%" stop-color="#dbf6ff" stop-opacity="1"></stop></linearGradient></defs><defs><linearGradient id="grad1_1" x1="33.3%" y1="0%" x2="100%" y2="100%"><stop offset="20%" stop-color="#dbf6ff" stop-opacity="1"></stop><stop offset="80%" stop-color="#f2f8ff" stop-opacity="1"></stop></linearGradient></defs><defs><linearGradient id="grad2_0" x1="0%" y1="0%" x2="66.7%" y2="100%"><stop offset="20%" stop-color="#dbf6ff" stop-opacity="1"></stop><stop offset="80%" stop-color="#dbf6ff" stop-opacity="1"></stop></linearGradient></defs><defs><linearGradient id="grad2_1" x1="0%" y1="0%" x2="66.7%" y2="100%"><stop offset="20%" stop-color="#f2f8ff" stop-opacity="1"></stop><stop offset="80%" stop-color="#dbf6ff" stop-opacity="1"></stop></linearGradient></defs><g transform="translate(900, 0)"><path d="M0 277C-40.7 281 -81.4 285 -111.7 269.8C-142.1 254.6 -162.2 220.3 -195.2 195.2C-228.1 170.1 -273.8 154.2 -297.5 123.2C-321.2 92.2 -322.8 46.1 -324.5 0L0 0Z" fill="#e7f7ff"></path><path d="M0 138.5C-20.3 140.5 -40.7 142.5 -55.9 134.9C-71.1 127.3 -81.1 110.1 -97.6 97.6C-114 85 -136.9 77.1 -148.7 61.6C-160.6 46.1 -161.4 23.1 -162.2 0L0 0Z" fill="#dbf6ff"></path></g><g transform="translate(0, 600)"><path d="M0 -286C47.1 -301.8 94.1 -317.7 124.2 -299.8C154.2 -281.9 167.3 -230.3 197.3 -197.3C227.3 -164.3 274.3 -149.9 290.1 -120.2C305.9 -90.4 290.4 -45.2 275 0L0 0Z" fill="#e7f7ff"></path><path d="M0 -143C23.5 -150.9 47.1 -158.8 62.1 -149.9C77.1 -141 83.6 -115.1 98.6 -98.6C113.7 -82.1 137.2 -75 145 -60.1C152.9 -45.2 145.2 -22.6 137.5 0L0 0Z" fill="#dbf6ff"></path></g></svg>